<?xml version="1.0" encoding="utf-8"?>
<!-- Generator: Adobe Illustrator 23.0.0, SVG Export Plug-In . SVG Version: 6.00 Build 0)  -->
<svg version="1.1" id="Layer_1" xmlns="http://www.w3.org/2000/svg" xmlns:xlink="http://www.w3.org/1999/xlink" x="0px" y="0px"
	 viewBox="0 0 70 70" style="enable-background:new 0 0 70 70;" xml:space="preserve">
<style type="text/css">
	.st0{fill:#FFFFFF;}
	.st1{fill:url(#SVGID_1_);}
	.st2{fill:url(#SVGID_2_);}
	.st3{fill:url(#SVGID_3_);}
</style>
<path class="st0" d="M10,0h50c5.5,0,10,4.5,10,10v50c0,5.5-4.5,10-10,10H10C4.5,70,0,65.5,0,60V10C0,4.5,4.5,0,10,0z"/>
<g>
	<g>
		<linearGradient id="SVGID_1_" gradientUnits="userSpaceOnUse" x1="10.9214" y1="48.2616" x2="60" y2="48.2616">
			<stop  offset="0.2545" style="stop-color:#1B1464"/>
			<stop  offset="1" style="stop-color:#00FFFF"/>
		</linearGradient>
		<polygon class="st1" points="60,43.5 43.7,53 43.6,53 27.3,62.4 10.9,53 27.3,43.6 27.3,43.5 43.7,34.1 		"/>
	</g>
	<g>
		<linearGradient id="SVGID_2_" gradientUnits="userSpaceOnUse" x1="10.9214" y1="24.5728" x2="59.9475" y2="24.5728">
			<stop  offset="0.1242" style="stop-color:#00FFFF"/>
			<stop  offset="0.9187" style="stop-color:#1B1464"/>
		</linearGradient>
		<polygon class="st2" points="59.9,24.5 59.9,43.4 43.6,34 43.6,33.9 27.3,24.6 27.3,24.6 10.9,15.2 27.3,5.7 43.5,15.1 43.6,15.1 
			59.9,24.5 		"/>
	</g>
	<g>
		<linearGradient id="SVGID_3_" gradientUnits="userSpaceOnUse" x1="19.1726" y1="52.8092" x2="19.1726" y2="24.4744">
			<stop  offset="3.494491e-02" style="stop-color:#1B1464"/>
			<stop  offset="0.7035" style="stop-color:#00FFFF"/>
		</linearGradient>
		<polygon class="st3" points="27.4,24.5 27.4,43.3 27.3,43.4 11,52.8 11,33.9 11,33.9 		"/>
	</g>
</g>
</svg>
