<svg id="Layer_1" data-name="Layer 1" xmlns="http://www.w3.org/2000/svg" xmlns:xlink="http://www.w3.org/1999/xlink" viewBox="0 0 913.25 475.34"><defs><style>.cls-1{fill:url(#linear-gradient);}.cls-2{fill:url(#linear-gradient-2);}.cls-3{fill:url(#linear-gradient-3);}.cls-4{font-size:76.49px;font-family:Exo-Bold, Exo;font-weight:700;}.cls-4,.cls-7{fill:#1b1464;}.cls-5{letter-spacing:-0.02em;}.cls-6{letter-spacing:0em;}.cls-7{font-size:27.54px;font-family:Exo-Light, Exo;font-weight:300;}.cls-8{letter-spacing:-0.02em;}</style><linearGradient id="linear-gradient" y1="356.55" x2="411.51" y2="356.55" gradientUnits="userSpaceOnUse"><stop offset="0.25" stop-color="#1b1464"/><stop offset="1" stop-color="aqua"/></linearGradient><linearGradient id="linear-gradient-2" y1="157.93" x2="411.07" y2="157.93" gradientUnits="userSpaceOnUse"><stop offset="0.12" stop-color="aqua"/><stop offset="0.92" stop-color="#1b1464"/></linearGradient><linearGradient id="linear-gradient-3" x1="69.18" y1="394.68" x2="69.18" y2="157.1" gradientUnits="userSpaceOnUse"><stop offset="0.03" stop-color="#1b1464"/><stop offset="0.7" stop-color="aqua"/></linearGradient></defs><title>logo</title><polygon class="cls-1" points="411.51 316.86 274.5 395.97 274.02 396.24 137.01 475.34 0 396.24 137.01 317.14 137.49 316.86 274.5 237.76 411.51 316.86"/><polygon class="cls-2" points="411.07 157.65 411.07 315.86 274.06 236.75 273.58 236.48 137.51 157.91 137.01 158.2 0 79.1 137.01 0 273.09 78.57 273.58 78.28 410.6 157.38 411.07 157.65"/><polygon class="cls-3" points="137.93 157.1 137.93 315.31 137.45 315.58 0.44 394.68 0.44 236.48 0.92 236.21 137.93 157.1"/><text class="cls-4" transform="translate(469.64 258.59)">dri<tspan class="cls-5" x="96.99" y="0">p</tspan><tspan class="cls-6" x="140.2" y="0">y_daily</tspan></text><text class="cls-7" transform="translate(876.18 217.1)">.<tspan class="cls-8" x="5.2" y="0">K</tspan><tspan x="20.98" y="0">E</tspan></text></svg>